Patient4_TMGait_0pt4_01_right_14_GRF.mot
version=1
nRows=78
nColumns=19
inDegrees=no
endheader
time	F1x	F1y	F1z	M1x	M1y	M1z	F2x	F2y	F2z	M2x	M2y	M2z	EC1x	EC1y	EC1z	EC2x	EC2y	EC2z
18.05	-2.4044	775.9563	68.2229	-273.0687	-64.6253	838.493	22.7797	16.557	-0.42307	3.455	-5.2249	12.6544	-0.0592	0.0182	-0.0073	-0.0462	0.0165	0.9585
18.0629	-3.4385	767.1626	66.3015	-269.8521	-63.773	825.2618	15.3333	11.6411	-0.26527	2.4824	-3.552	9.1596	-0.0592	0.0182	-0.0073	-0.0462	0.0165	0.9585
18.0757	-3.8654	757.3751	64.2628	-266.3099	-62.4322	810.9866	9.0565	7.4785	-0.15391	1.674	-2.1165	6.1771	-0.0592	0.0182	-0.0073	-0.0462	0.0165	0.9585
18.0886	-3.6235	747.4853	62.2041	-262.777	-60.6455	796.7731	4.2948	4.3243	-0.086727	1.0757	-1.0091	3.9047	-0.0592	0.0182	-0.0073	-0.0462	0.0165	0.9585
18.1014	-2.7633	738.4019	60.2346	-259.5805	-58.5455	783.6351	1.0038	2.165	-0.060233	0.67923	-0.22347	2.3434	-0.0592	0.0182	-0.0073	-0.0462	0.0165	0.9585
18.1143	-1.3757	730.893	58.4255	-256.9833	-56.2634	772.3617	-1.0217	0.8504	-0.063434	0.44856	0.28246	1.3774	-0.0592	0.0182	-0.0073	-0.0462	0.0165	0.9585
18.1271	0.40927	725.4715	56.8819	-255.1432	-53.983	763.4483	-2.0922	0.16097	-0.091684	0.3323	0.58325	0.85597	-0.0592	0.0182	-0.0073	-0.0462	0.0165	0.9585
18.14	2.4635	722.3491	55.6704	-254.1064	-51.8531	757.0613	-2.4906	-0.16792	-0.13455	0.26851	0.73902	0.5597	-0.0592	0.0182	-0.0073	-0.0462	0.0165	0.9585
18.1529	4.6711	721.4759	54.8602	-253.8257	-50.0094	753.0888	-2.4687	-0.35879	-0.19494	0.20163	0.81382	0.31352	-0.0592	0.0182	-0.0073	-0.0462	0.0165	0.9585
18.1657	6.9612	722.6175	54.4461	-254.1962	-48.4917	751.2217	-2.208	-0.63586	-0.26598	0.071599	0.84502	-0.087969	-0.0592	0.0182	-0.0073	-0.0462	0.0165	0.9585
18.1786	9.2903	725.3999	54.4222	-255.0698	-47.3184	751.0222	-1.8586	-1.189	-0.34527	-0.17773	0.86446	-0.81813	-0.0592	0.0182	-0.0073	-0.0462	0.0165	0.9585
18.1914	11.6591	729.3492	54.7336	-256.2728	-46.4482	751.9458	-1.4966	-2.1491	-0.42302	-0.589	0.87683	-2.0137	-0.0592	0.0182	-0.0073	-0.0462	0.0165	0.9585
18.2043	14.0641	733.9627	55.3339	-257.6278	-45.8457	753.4464	-1.1707	-3.5994	-0.49076	-1.1891	0.87741	-3.7695	-0.0592	0.0182	-0.0073	-0.0462	0.0165	0.9585
18.2171	16.5298	738.7622	56.151	-258.9774	-45.4446	755.0169	-0.91432	-5.5368	-0.52123	-1.9738	0.83748	-6.0792	-0.0592	0.0182	-0.0073	-0.0462	0.0165	0.9585
18.23	19.073	743.3349	57.1131	-260.1955	-45.1752	756.2368	-0.71266	-7.8059	-0.4844	-2.8804	0.7146	-8.7677	-0.0592	0.0182	-0.0073	-0.0462	0.0165	0.9585
18.2429	21.7403	747.3621	58.1312	-261.1942	-44.9377	756.7791	-0.57268	-10.0302	-0.33761	-3.7578	0.46673	-11.383	-0.0592	0.0182	-0.0073	-0.0462	0.0165	0.9585
18.2557	24.5805	750.5892	59.1256	-261.9053	-44.6387	756.3934	-0.48822	-11.5559	-0.033516	-4.3399	0.050702	-13.1646	-0.0592	0.0182	-0.0073	-0.0462	0.0165	0.9585
18.2686	27.6477	752.7482	60.0272	-262.2499	-44.1942	754.8225	-0.46993	-11.3152	0.47421	-4.2017	-0.56784	-12.8765	-0.0592	0.0182	-0.0073	-0.0462	0.0165	0.9585
18.2814	30.9932	753.5007	60.788	-262.1155	-43.5431	751.7535	-0.5313	-7.8372	1.2219	-2.7563	-1.4091	-8.8249	-0.0592	0.0182	-0.0073	-0.0462	0.0165	0.9585
18.2943	34.6259	752.3867	61.3514	-261.3378	-42.6315	746.77	-0.71618	0.75804	2.218	0.74325	-2.4533	1.1687	-0.0592	0.0182	-0.0073	-0.0462	0.0165	0.9585
18.3071	38.4994	748.7113	61.6319	-259.6749	-41.4019	739.254	-1.061	16.6271	3.4076	7.1472	-3.6096	19.6063	-0.0592	0.0182	-0.0073	-0.0462	0.0165	0.9585
18.32	42.4884	741.544	61.5035	-256.809	-39.7831	728.402	-1.6108	41.8511	4.6531	17.2684	-4.6959	48.9052	-0.0592	0.0182	-0.0073	-0.0462	0.0165	0.9585
18.3329	46.4172	729.7676	60.7957	-252.3635	-37.6829	713.2516	-2.4146	77.8378	5.6804	31.6412	-5.3749	90.7163	-0.0592	0.0182	-0.0073	-0.0462	0.0165	0.9585
18.3457	50.0061	712.1847	59.3173	-245.9388	-35.0254	692.8072	-3.5025	124.4342	6.0379	50.1658	-5.1119	144.8773	-0.0592	0.0182	-0.0073	-0.0462	0.0165	0.9585
18.3586	52.9245	687.7464	56.8933	-237.1891	-31.7776	666.2099	-5.1802	178.8557	5.1349	71.6848	-3.1158	208.1673	-0.0592	0.0182	-0.0073	-0.0462	0.0165	0.9585
18.3714	54.821	655.8578	53.4534	-225.9295	-28.0045	633.0067	-8.0813	235.0858	2.3494	93.7836	1.503	273.5799	-0.0592	0.0182	-0.0073	-0.0462	0.0165	0.9585
18.3843	55.4155	616.7804	49.06	-212.2687	-23.8666	593.5119	-12.6641	286.8602	-2.2043	113.9829	8.6852	333.8563	-0.0592	0.0182	-0.0073	-0.0462	0.0165	0.9585
18.3971	54.5653	571.7732	43.9614	-196.6447	-19.6399	548.9314	-18.6129	331.3103	-7.8564	131.1731	17.5313	385.5923	-0.0592	0.0182	-0.0073	-0.0462	0.0165	0.9585
18.41	52.3258	522.6532	38.5406	-179.6732	-15.6485	500.9619	-25.034	369.0639	-13.9644	145.6387	26.9705	429.3807	-0.0592	0.0182	-0.0073	-0.0462	0.0165	0.9585
18.4229	48.8895	471.2582	33.1742	-161.9717	-12.1531	451.2774	-30.8541	402.1987	-19.7319	158.2633	35.7364	467.4629	-0.0592	0.0182	-0.0073	-0.0462	0.0165	0.9585
18.4357	44.4961	419.181	28.1408	-144.0681	-9.3008	401.3108	-35.3379	432.8371	-24.7147	169.9427	43.0486	502.2141	-0.0592	0.0182	-0.0073	-0.0462	0.0165	0.9585
18.4486	39.4168	367.6379	23.6056	-126.3587	-7.1264	352.1192	-38.1253	462.6273	-28.6026	181.3677	48.4534	535.4936	-0.0592	0.0182	-0.0073	-0.0462	0.0165	0.9585
18.4614	33.8965	317.4871	19.6364	-109.1236	-5.5951	304.4298	-39.2785	492.6081	-31.6065	192.9423	52.2126	568.5474	-0.0592	0.0182	-0.0073	-0.0462	0.0165	0.9585
18.4743	28.1338	269.4699	16.2298	-92.6099	-4.6282	258.8577	-39.1512	523.2083	-34.138	204.8054	54.9364	601.9506	-0.0592	0.0182	-0.0073	-0.0462	0.0165	0.9585
18.4871	22.2764	224.342	13.3449	-77.0766	-4.1391	216.058	-38.2467	554.491	-36.7478	216.9371	57.4235	635.8773	-0.0592	0.0182	-0.0073	-0.0462	0.0165	0.9585
18.5	16.469	182.864	10.9138	-62.7909	-4.0238	176.6941	-37.0641	586.3333	-39.7218	229.2482	60.1968	670.2596	-0.0592	0.0182	-0.0073	-0.0462	0.0165	0.9585
18.5129	10.8853	145.7419	8.9005	-49.9994	-4.2003	141.3905	-36.0355	618.3195	-43.1676	241.5589	63.5474	704.6855	-0.0592	0.0182	-0.0073	-0.0462	0.0165	0.9585
18.5257	5.7474	113.4463	7.2683	-38.8698	-4.5659	110.5722	-35.456	649.7833	-46.9007	253.6128	67.394	738.4425	-0.0592	0.0182	-0.0073	-0.0462	0.0165	0.9585
18.5386	1.2813	86.0913	5.9834	-29.4477	-5.0142	84.3459	-35.3945	679.8573	-50.681	265.0865	71.4926	770.5459	-0.0592	0.0182	-0.0073	-0.0462	0.0165	0.9585
18.5514	-2.3368	63.5025	4.9755	-21.6741	-5.4193	62.5576	-35.8294	707.5691	-54.2392	275.6182	75.5241	799.8968	-0.0592	0.0182	-0.0073	-0.0462	0.0165	0.9585
18.5643	-4.9748	45.2529	4.1803	-15.4008	-5.6715	44.836	-36.6413	731.9116	-57.4149	284.8339	79.2471	825.3513	-0.0592	0.0182	-0.0073	-0.0462	0.0165	0.9585
18.5771	-6.5258	30.8036	3.4866	-10.4416	-5.6247	30.7171	-37.6852	752.0744	-60.0943	292.4238	82.4691	846.0053	-0.0592	0.0182	-0.0073	-0.0462	0.0165	0.9585
18.59	-6.9351	19.6253	2.8158	-6.6117	-5.1842	19.7233	-38.816	767.5113	-62.2459	298.1801	85.0886	861.2422	-0.0592	0.0182	-0.0073	-0.0462	0.0165	0.9585
18.6029	-6.2972	11.2696	2.1091	-3.7537	-4.3253	11.4478	-39.9131	778.0804	-63.8545	302.0465	87.0451	870.9007	-0.0592	0.0182	-0.0073	-0.0462	0.0165	0.9585
18.6157	-4.9499	5.3764	1.4104	-1.743	-3.2062	5.5564	-40.8214	784.0384	-64.9483	304.1167	88.3191	875.2596	-0.0592	0.0182	-0.0073	-0.0462	0.0165	0.9585
18.6286	-3.394	1.6353	0.80103	-0.4718	-2.0826	1.7877	-41.3803	785.9446	-65.5713	304.6046	88.9024	874.9333	-0.0592	0.0182	-0.0073	-0.0462	0.0165	0.9585
18.6414	-1.9366	-0.43034	0.33885	0.223	-1.1236	-0.29373	-41.4314	784.5851	-65.798	303.8123	88.8162	870.7798	-0.0592	0.0182	-0.0073	-0.0462	0.0165	0.9585
18.6543	-0.73441	-1.297	0.0059857	0.5083	-0.3729	-1.1465	-40.8332	780.8985	-65.7177	302.0954	88.1067	863.8253	-0.0592	0.0182	-0.0073	-0.0462	0.0165	0.9585
18.6671	0.1669	-1.379	-0.20171	0.52944	0.15538	-1.2064	-39.5468	775.7929	-65.4362	299.7981	86.8716	855.088	-0.0592	0.0182	-0.0073	-0.0462	0.0165	0.9585
18.68	0.78429	-1.0192	-0.31779	0.4012	0.49712	-0.83043	-37.6224	770.0372	-65.0555	297.2145	85.2435	845.4592	-0.0592	0.0182	-0.0073	-0.0462	0.0165	0.9585
18.6929	1.1547	-0.45984	-0.35553	0.20594	0.68047	-0.25917	-35.1938	764.2548	-64.673	294.583	83.3844	835.6854	-0.0592	0.0182	-0.0073	-0.0462	0.0165	0.9585
18.7057	1.344	0.13238	-0.34388	-0.0017424	0.75603	0.33301	-32.4471	758.9189	-64.3571	292.0891	81.4448	826.3335	-0.0592	0.0182	-0.0073	-0.0462	0.0165	0.9585
18.7186	1.388	0.64451	-0.29396	-0.1854	0.74669	0.85092	-29.5685	754.3968	-64.1443	289.8813	79.5439	817.8409	-0.0592	0.0182	-0.0073	-0.0462	0.0165	0.9585
18.7314	1.3438	0.99434	-0.2246	-0.31834	0.68669	1.203	-26.7201	750.9689	-64.0367	288.077	77.7585	810.537	-0.0592	0.0182	-0.0073	-0.0462	0.0165	0.9585
18.7443	1.2326	1.1322	-0.14604	-0.37995	0.59	1.3444	-24.0313	748.7795	-64.0005	286.7491	76.117	804.5885	-0.0592	0.0182	-0.0073	-0.0462	0.0165	0.9585
18.7571	1.0886	0.99173	-0.069721	-0.34657	0.47506	1.1891	-21.5752	747.8204	-63.9752	285.9136	74.5968	799.9885	-0.0592	0.0182	-0.0073	-0.0462	0.0165	0.9585
18.77	0.92301	0.51533	0.0075834	-0.19686	0.34413	0.67319	-19.3464	747.9324	-63.9011	285.5229	73.1457	796.5541	-0.0592	0.0182	-0.0073	-0.0462	0.0165	0.9585
18.7829	0.75232	-0.36545	0.081077	0.092678	0.20939	-0.2801	-17.2948	748.8116	-63.7417	285.4694	71.7167	793.9392	-0.0592	0.0182	-0.0073	-0.0462	0.0165	0.9585
18.7957	0.59607	-1.6979	0.14719	0.54067	0.082569	-1.7233	-15.3548	750.057	-63.4787	285.6035	70.2757	791.6973	-0.0592	0.0182	-0.0073	-0.0462	0.0165	0.9585
18.8086	0.46799	-3.4691	0.18976	1.1434	-0.011312	-3.6446	-13.4536	751.232	-63.117	285.7584	68.809	789.3517	-0.0592	0.0182	-0.0073	-0.0462	0.0165	0.9585
18.8214	0.41201	-5.5734	0.19198	1.8605	-0.037881	-5.9387	-11.5511	751.9276	-62.6627	285.776	67.3058	786.4682	-0.0592	0.0182	-0.0073	-0.0462	0.0165	0.9585
18.8343	0.46483	-7.7369	0.11734	2.5944	0.057784	-8.3014	-9.6024	751.8385	-62.1488	285.5347	65.7729	782.7201	-0.0592	0.0182	-0.0073	-0.0462	0.0165	0.9585
18.8471	0.7042	-9.4553	-0.073073	3.1698	0.3436	-10.2011	-7.5509	750.8156	-61.6272	284.9654	64.2304	777.9476	-0.0592	0.0182	-0.0073	-0.0462	0.0165	0.9585
18.86	1.1893	-9.9009	-0.43474	3.3042	0.90226	-10.7285	-5.3733	748.792	-61.1868	284.0233	62.7374	772.0946	-0.0592	0.0182	-0.0073	-0.0462	0.0165	0.9585
18.8729	2.0192	-7.8806	-1.0095	2.5898	1.8109	-8.5742	-3.0678	745.6916	-60.9062	282.6599	61.3559	765.1196	-0.0592	0.0182	-0.0073	-0.0462	0.0165	0.9585
18.8857	3.2616	-1.8167	-1.8359	0.48706	3.1333	-2.005	-0.65146	741.3687	-60.8327	280.8023	60.1336	756.9413	-0.0592	0.0182	-0.0073	-0.0462	0.0165	0.9585
18.8986	4.9538	10.1645	-2.9096	-3.6413	4.8726	11.0242	1.8348	735.5042	-60.9498	278.3245	59.0699	747.3128	-0.0592	0.0182	-0.0073	-0.0462	0.0165	0.9585
18.9114	7.0462	30.001	-4.1677	-10.451	6.9359	32.6304	4.3241	727.5606	-61.1851	275.0251	58.1214	735.786	-0.0592	0.0182	-0.0073	-0.0462	0.0165	0.9585
18.9243	9.3301	59.2451	-5.4349	-20.4588	9.0544	64.5117	6.7373	716.7334	-61.3822	270.6122	57.1722	721.6592	-0.0592	0.0182	-0.0073	-0.0462	0.0165	0.9585
18.9371	11.3762	98.3107	-6.3852	-33.7869	10.7231	107.1093	8.9243	702.0002	-61.3396	264.7166	56.0873	704.0386	-0.0592	0.0182	-0.0073	-0.0462	0.0165	0.9585
18.95	12.4424	145.432	-6.489	-49.8019	11.1131	158.5069	10.6949	682.2659	-60.8186	256.9424	54.7141	681.9651	-0.0592	0.0182	-0.0073	-0.0462	0.0165	0.9585
18.9629	11.7323	195.6656	-5.0668	-66.7681	9.2327	213.3355	11.8383	656.6635	-59.6128	246.9767	52.9345	654.6824	-0.0592	0.0182	-0.0073	-0.0462	0.0165	0.9585
18.9757	9.0095	241.9515	-1.6073	-82.2299	4.5156	263.9067	12.2112	625.003	-57.6156	234.7642	50.7037	622.0373	-0.0592	0.0182	-0.0073	-0.0462	0.0165	0.9585
18.9886	4.6326	280.1902	3.5157	-94.7934	-2.4679	305.6572	11.8235	588.2641	-54.9128	220.6823	48.113	584.929	-0.0592	0.0182	-0.0073	-0.0462	0.0165	0.9585
19.0014	-0.69711	311.4431	9.5748	-104.8237	-10.7118	339.6391	10.8446	548.395	-51.7831	205.4568	45.3711	545.1418	-0.0592	0.0182	-0.0073	-0.0462	0.0165	0.9585
19.0143	-6.169	338.7202	16.0369	-113.3719	-19.3709	369.0436	9.6007	507.3642	-48.57	189.8296	42.6852	504.4304	-0.0592	0.0182	-0.0073	-0.0462	0.0165	0.9585
19.0271	-11.1686	364.8934	22.2797	-121.4689	-27.5904	396.9013	8.3948	466.6854	-45.3959	174.3761	40.0554	464.143	-0.0592	0.0182	-0.0073	-0.0462	0.0165	0.9585
19.04	-15.2815	391.8438	27.9622	-129.8012	-34.8665	425.1838	7.4902	427.2399	-42.2519	159.4371	37.377	425.0364	-0.0592	0.0182	-0.0073	-0.0462	0.0165	0.9585
